<svg width="32" height="32" viewBox="0 0 32 32" fill="none" xmlns="http://www.w3.org/2000/svg">
<path d="M15.9997 2C8.26795 2 2 8.29111 2 16.0514C2 22.641 6.52023 28.1705 12.6179 29.6892V20.3455H9.73121V16.0514H12.6179V14.2011C12.6179 9.41859 14.7745 7.20184 19.4526 7.20184C20.3396 7.20184 21.8701 7.37664 22.4962 7.55088V11.4431C22.1658 11.4083 21.5918 11.3909 20.8789 11.3909C18.5835 11.3909 17.6965 12.2637 17.6965 14.5328V16.0514H22.2694L21.4837 20.3455H17.6965V30C24.6286 29.1597 30 23.2356 30 16.0514C29.9994 8.29111 23.7315 2 15.9997 2Z" fill="#85929A"/>
</svg>
