<svg width="32" height="32" viewBox="0 0 32 32" fill="none" xmlns="http://www.w3.org/2000/svg">
<path d="M21.0354 5.15826C23.539 4.64116 26.2511 5.39432 28.0902 7.37278C29.9292 9.34749 30.4276 12.0416 29.6394 14.3986V14.4023C29.4578 14.9456 28.8551 15.2454 28.2911 15.0693C27.727 14.8932 27.4179 14.3086 27.5995 13.7616C28.1597 12.0829 27.8043 10.1681 26.4984 8.76295C25.1925 7.35779 23.2647 6.82196 21.4836 7.18917C20.9041 7.30908 20.3361 6.95311 20.2125 6.39105C20.0889 5.83273 20.4559 5.27816 21.0354 5.15826Z" fill="#85929A"/>
<path fill-rule="evenodd" clip-rule="evenodd" d="M8.56794 19.3672C9.52608 17.4824 12.018 16.4145 14.2241 16.9728C16.5074 17.5461 17.6742 19.6332 16.7392 21.6642C15.7927 23.7363 13.0728 24.8454 10.7624 24.1222C8.53703 23.4253 7.59047 21.2895 8.56794 19.3672ZM13.2196 20.3302C13.4978 20.4426 13.8571 20.3152 14.0193 20.0454C14.1739 19.7719 14.0734 19.4684 13.7952 19.3709C13.5209 19.266 13.1771 19.3934 13.0148 19.6557C12.8564 19.918 12.9414 20.2215 13.2196 20.3302ZM10.407 22.5597C11.1294 22.8782 12.0914 22.5747 12.5396 21.8815C12.98 21.1808 12.7482 20.3827 12.0219 20.0791C11.3033 19.7869 10.3761 20.0866 9.93175 20.7611C9.48358 21.4393 9.69608 22.245 10.407 22.5597Z" fill="#85929A"/>
<path fill-rule="evenodd" clip-rule="evenodd" d="M23.023 15.5872L23.0328 15.5901C24.6401 16.0735 26.4289 17.2426 26.425 19.3035C26.425 22.7096 21.36 27 13.745 27C7.93819 27 2 24.2684 2 19.7794C2 17.43 3.53381 14.7133 6.17257 12.1541C9.69994 8.73297 13.8146 7.17419 15.36 8.67677C16.0399 9.34 16.1056 10.4829 15.669 11.8505C15.4372 12.5363 16.3336 12.1578 16.3336 12.1578C19.1848 11 21.6729 10.9325 22.5808 12.1915C23.0676 12.866 23.0213 13.8065 22.5731 14.8969C22.37 15.3948 22.6343 15.4727 23.023 15.5872ZM4.82421 20.851C5.12556 23.8 9.12814 25.8347 13.7643 25.3888C18.3967 24.9466 21.9124 22.1925 21.6072 19.2398C21.3097 16.2908 17.3072 14.2562 12.671 14.7021C8.03864 15.148 4.52286 17.8983 4.82421 20.851Z" fill="#85929A"/>
<path d="M25.2659 9.84586C24.3696 8.88286 23.0483 8.51564 21.8313 8.77044C21.3329 8.87161 21.0161 9.35124 21.1204 9.83461C21.2286 10.318 21.7193 10.6252 22.2138 10.5203C22.8088 10.3967 23.4578 10.5765 23.8944 11.0449C24.331 11.5171 24.4507 12.1578 24.2614 12.7199C24.1069 13.1883 24.3696 13.6941 24.8564 13.8477C25.3432 13.9976 25.8609 13.7428 26.0193 13.2707C26.4018 12.1203 26.1623 10.8089 25.2659 9.84586Z" fill="#85929A"/>
</svg>
